<svg width="308" height="173" viewBox="0 0 308 173" fill="none" xmlns="http://www.w3.org/2000/svg">
<path fill-rule="evenodd" clip-rule="evenodd" d="M15.25 45.2499C23.5343 45.2499 30.25 51.9656 30.25 60.2499L30.25 157.75C30.25 166.034 23.5343 172.75 15.25 172.75C6.96573 172.75 0.25 166.034 0.25 157.75L0.25 60.2499C0.25 51.9656 6.96573 45.2499 15.25 45.2499Z" fill="white"/>
<path fill-rule="evenodd" clip-rule="evenodd" d="M187.75 45.2499C196.034 45.2499 202.75 51.9656 202.75 60.2499V157.75C202.75 166.034 196.034 172.75 187.75 172.75C179.466 172.75 172.75 166.034 172.75 157.75V60.2499C172.75 51.9656 179.466 45.2499 187.75 45.2499Z" fill="white"/>
<path fill-rule="evenodd" clip-rule="evenodd" d="M0.250122 60.25C0.250122 51.9657 6.96585 45.25 15.2501 45.25L67.7501 45.25L67.7501 75.25L15.2501 75.25C6.96585 75.25 0.250122 68.5343 0.250122 60.25Z" fill="white"/>
<path fill-rule="evenodd" clip-rule="evenodd" d="M240.25 75.2499H187.75V45.2499H240.25V75.2499Z" fill="white"/>
<path fill-rule="evenodd" clip-rule="evenodd" d="M105.25 157.75C105.25 149.466 111.966 142.75 120.25 142.75L187.75 142.75C196.034 142.75 202.75 149.466 202.75 157.75C202.75 166.034 196.034 172.75 187.75 172.75L120.25 172.75C111.966 172.75 105.25 166.034 105.25 157.75Z" fill="white"/>
<path fill-rule="evenodd" clip-rule="evenodd" d="M175.417 166.288L107.917 68.788L132.583 51.7117L200.083 149.212L175.417 166.288Z" fill="white"/>
<path fill-rule="evenodd" clip-rule="evenodd" d="M120.25 75.2499H52.75V45.2499H120.25V75.2499Z" fill="white"/>
<path fill-rule="evenodd" clip-rule="evenodd" d="M225.25 60.2499C225.25 51.9656 231.966 45.2499 240.25 45.2499H292.75C301.034 45.2499 307.75 51.9656 307.75 60.2499C307.75 68.5342 301.034 75.2499 292.75 75.2499H240.25C231.966 75.2499 225.25 68.5342 225.25 60.2499Z" fill="white"/>
<path fill-rule="evenodd" clip-rule="evenodd" d="M67.75 172.75C59.4657 172.75 52.75 166.034 52.75 157.75L52.75 60.2499C52.75 51.9656 59.4657 45.2499 67.75 45.2499C76.0343 45.2499 82.75 51.9656 82.75 60.2499L82.75 157.75C82.75 166.034 76.0343 172.75 67.75 172.75Z" fill="white"/>
<path fill-rule="evenodd" clip-rule="evenodd" d="M240.25 172.75C231.966 172.75 225.25 166.034 225.25 157.75V60.2499C225.25 51.9656 231.966 45.2499 240.25 45.2499C248.534 45.2499 255.25 51.9656 255.25 60.2499V157.75C255.25 166.034 248.534 172.75 240.25 172.75Z" fill="white"/>
<path fill-rule="evenodd" clip-rule="evenodd" d="M120.25 172.75C111.966 172.75 105.25 166.034 105.25 157.75L105.25 45.2499H135.25L135.25 157.75C135.25 166.034 128.534 172.75 120.25 172.75Z" fill="white"/>
<path fill-rule="evenodd" clip-rule="evenodd" d="M135.25 12.8815L135.25 120.25H105.25L105.25 12.8815C105.25 5.90523 111.966 0.249874 120.25 0.249874C128.534 0.249874 135.25 5.90523 135.25 12.8815Z" fill="white"/>
<path fill-rule="evenodd" clip-rule="evenodd" d="M292.75 172.75C284.466 172.75 277.75 166.034 277.75 157.75V60.2499C277.75 51.9656 284.466 45.2499 292.75 45.2499C301.034 45.2499 307.75 51.9656 307.75 60.2499V157.75C307.75 166.034 301.034 172.75 292.75 172.75Z" fill="white"/>
<path fill-rule="evenodd" clip-rule="evenodd" d="M105.25 60.2499C105.25 51.9656 111.966 45.2499 120.25 45.2499L187.75 45.2499C196.034 45.2499 202.75 51.9656 202.75 60.2499C202.75 68.5342 196.034 75.2499 187.75 75.2499L120.25 75.2499C111.966 75.2499 105.25 68.5342 105.25 60.2499Z" fill="white"/>
</svg>
